<?xml version="1.0" standalone="no"?>
<!DOCTYPE svg PUBLIC "-//W3C//DTD SVG 20010904//EN"
 "http://www.w3.org/TR/2001/REC-SVG-20010904/DTD/svg10.dtd">
<svg version="1.0" xmlns="http://www.w3.org/2000/svg"
 width="1001.000000pt" height="320.000000pt" viewBox="0 0 1001.000000 320.000000"
 preserveAspectRatio="xMidYMid meet">
<metadata>
Created by potrace 1.16, written by Peter Selinger 2001-2019
</metadata>
<g transform="translate(0.000000,320.000000) scale(0.100000,-0.100000)"
fill="#000000" stroke="none">
<path d="M9535 3188 c-272 -37 -430 -342 -306 -593 38 -76 120 -156 198 -193
53 -24 69 -27 173 -27 110 0 118 2 182 33 84 41 167 128 200 209 19 48 23 76
23 168 0 99 -3 116 -27 168 -79 168 -254 261 -443 235z m111 -207 c52 -38 110
-101 118 -127 4 -14 -1 -30 -15 -48 -21 -27 -30 -28 -71 -11 -16 7 -18 -2 -18
-96 0 -114 -11 -139 -61 -139 -50 0 -59 20 -59 136 0 103 0 105 -21 94 -45
-24 -98 16 -83 62 12 40 135 158 165 158 3 0 24 -13 45 -29z"/>
<path d="M350 2668 c0 -7 14 -69 30 -138 l30 -125 -196 -855 c-107 -470 -197
-863 -200 -872 -5 -17 13 -18 290 -18 272 0 295 1 300 18 3 9 15 68 27 130
l22 112 171 -2 171 -3 24 -128 25 -127 293 0 293 0 -5 23 c-4 13 -102 466
-219 1008 l-212 984 -422 3 c-334 2 -422 0 -422 -10z m530 -976 c27 -172 50
-318 50 -323 0 -5 -49 -9 -110 -9 l-111 0 6 33 c3 17 25 156 50 307 50 305 57
342 62 320 2 -8 25 -156 53 -328z"/>
<path d="M8153 2660 c3 -11 17 -75 32 -143 l26 -122 -199 -868 -198 -867 295
2 296 3 24 127 25 128 171 0 172 0 23 -130 23 -130 295 0 c231 0 293 3 290 13
-3 6 -101 461 -219 1009 l-214 998 -424 0 c-420 0 -423 0 -418 -20z m527 -958
c27 -172 50 -320 50 -328 0 -11 -21 -14 -111 -14 -100 0 -110 2 -105 18 2 9
28 163 57 342 29 179 54 318 56 310 2 -8 25 -156 53 -328z"/>
<path d="M1619 2613 c10 -26 46 -117 80 -201 l61 -152 0 -800 0 -800 275 0
275 0 0 270 0 270 128 0 c366 1 586 135 670 411 43 139 51 357 21 547 -21 133
-73 246 -149 322 -63 64 -121 99 -212 129 -128 41 -160 43 -671 48 l-497 4 19
-48z m811 -374 c36 -9 78 -45 98 -84 19 -38 35 -187 29 -274 -12 -178 -68
-253 -204 -276 l-43 -7 0 332 0 332 43 -7 c23 -4 58 -11 77 -16z"/>
<path d="M3300 1660 l0 -1000 275 0 275 0 0 1000 0 1000 -275 0 -275 0 0
-1000z"/>
<path d="M3970 2656 c0 -4 34 -90 75 -193 l75 -187 0 -808 0 -808 275 0 275 0
0 269 0 269 158 5 c116 3 178 10 235 26 228 61 358 188 420 410 18 67 21 102
21 291 0 188 -3 225 -22 292 -66 240 -189 354 -443 414 -63 15 -145 18 -571
21 -274 3 -498 2 -498 -1z m850 -429 c35 -17 50 -33 70 -72 21 -44 25 -66 28
-181 3 -76 -1 -153 -7 -186 -22 -104 -89 -166 -199 -184 l-42 -7 0 332 0 332
53 -7 c28 -3 72 -16 97 -27z"/>
<path d="M6610 2435 l0 -225 205 0 205 0 0 -775 0 -775 275 0 275 0 0 775 0
775 183 0 183 0 38 206 c21 114 41 215 43 225 5 18 -18 19 -701 19 l-706 0 0
-225z"/>
<path d="M6073 1752 c-6 -4 -43 -47 -82 -96 l-71 -89 0 -518 0 -519 -60 0 -60
0 0 333 0 334 -109 7 c-60 3 -154 3 -210 0 l-101 -7 0 -334 0 -333 -2690 0
-2690 0 0 -45 0 -45 2728 2 2727 3 3 338 2 337 130 0 130 0 0 -340 0 -340 140
0 140 0 0 543 0 542 56 70 c67 84 68 85 122 85 l42 0 0 -608 c0 -460 3 -611
12 -620 8 -8 55 -12 145 -12 l133 0 0 95 0 95 45 0 45 0 0 44 c0 41 -2 45 -27
49 l-28 4 28 2 c25 1 27 4 27 45 l0 45 -47 4 -48 3 48 2 47 2 0 45 0 45 -45 0
c-25 0 -45 4 -45 8 0 4 22 29 48 55 l48 47 47 -48 c26 -26 47 -51 47 -55 0 -4
-20 -7 -45 -7 l-45 0 0 -44 0 -45 48 -4 47 -3 -47 -2 -48 -2 0 -45 0 -45 45 0
45 0 0 -145 0 -145 1370 0 1370 0 0 45 0 45 -1330 0 -1330 0 0 223 0 222 -89
89 -90 89 -85 -83 -86 -84 0 -228 0 -228 -60 0 -60 0 0 603 c0 456 -3 606 -12
615 -13 13 -205 17 -225 4z"/>
<path d="M5607 693 c-14 -13 -7 -72 9 -81 15 -8 15 -10 0 -15 -11 -4 -16 -19
-16 -46 0 -44 10 -51 71 -51 l39 0 0 49 c0 43 -3 50 -22 54 l-23 4 23 2 c19 1
22 6 22 46 l0 45 -48 0 c-27 0 -52 -3 -55 -7z"/>
<path d="M81 174 c-28 -36 -28 -102 0 -138 16 -20 29 -26 60 -26 22 0 49 4 59
10 44 24 49 136 7 165 -12 8 -40 15 -63 15 -34 0 -47 -5 -63 -26z"/>
<path d="M260 105 c0 -88 1 -95 20 -95 16 0 20 7 20 30 0 28 2 30 38 30 47 0
72 24 72 68 0 47 -22 62 -91 62 l-59 0 0 -95z"/>
<path d="M650 105 c0 -88 1 -95 20 -95 18 0 20 7 21 58 l0 57 22 -42 c11 -24
27 -43 34 -43 7 0 21 19 32 43 l19 42 1 -57 c1 -51 3 -58 21 -58 19 0 20 7 20
95 0 88 -1 95 -20 95 -14 0 -28 -16 -48 -56 l-28 -56 -25 56 c-19 44 -29 56
-46 56 -22 0 -23 -3 -23 -95z"/>
<path d="M926 192 c-5 -8 -66 -173 -66 -179 0 -2 9 -3 19 -3 11 0 23 9 26 20
9 28 70 28 85 0 6 -11 19 -20 30 -20 18 0 18 3 -6 68 -43 117 -46 122 -65 122
-10 0 -20 -4 -23 -8z"/>
<path d="M1476 192 c-5 -8 -66 -173 -66 -179 0 -2 9 -3 19 -3 11 0 23 9 26 20
9 28 70 28 85 0 6 -11 19 -20 30 -20 18 0 18 3 -6 68 -43 117 -46 122 -65 122
-10 0 -20 -4 -23 -8z"/>
<path d="M1940 105 c0 -88 1 -95 20 -95 16 0 20 7 20 30 0 28 2 30 38 30 47 0
72 24 72 68 0 47 -22 62 -91 62 l-59 0 0 -95z"/>
<path d="M2110 105 l0 -95 70 0 c56 0 70 3 70 15 0 11 -12 15 -50 15 -47 0
-50 2 -50 25 0 23 4 25 45 25 33 0 45 4 45 15 0 11 -12 15 -45 15 -41 0 -45 2
-45 25 0 23 3 25 50 25 38 0 50 4 50 15 0 12 -14 15 -70 15 l-70 0 0 -95z"/>
<path d="M2260 105 c0 -88 2 -95 20 -95 16 0 19 8 22 62 l3 63 40 -63 c24 -37
47 -62 58 -62 15 0 17 11 17 95 0 88 -2 95 -20 95 -16 0 -19 -8 -22 -57 l-3
-57 -38 57 c-24 38 -44 57 -57 57 -19 0 -20 -7 -20 -95z"/>
<path d="M2475 175 c-35 -34 -35 -106 0 -141 22 -21 33 -25 78 -22 l52 3 3 53
3 52 -40 0 c-30 0 -41 -4 -41 -15 0 -9 9 -15 25 -15 20 0 25 -5 25 -25 0 -20
-5 -25 -26 -25 -46 0 -64 17 -64 60 0 53 22 74 72 67 32 -4 38 -2 38 14 0 16
-8 19 -50 19 -41 0 -56 -5 -75 -25z"/>
<path d="M2696 192 c-5 -8 -66 -173 -66 -179 0 -2 9 -3 19 -3 11 0 23 9 26 20
9 28 70 28 85 0 6 -11 19 -20 30 -20 18 0 18 3 -6 68 -43 117 -46 122 -65 122
-10 0 -20 -4 -23 -8z"/>
<path d="M2800 193 c0 -7 9 -48 35 -160 3 -14 13 -23 24 -23 15 0 24 14 37 57
l17 58 16 -58 c13 -48 19 -57 35 -55 16 2 24 18 38 78 22 97 22 112 1 108 -12
-2 -20 -18 -26 -48 -13 -66 -22 -67 -36 -5 -10 43 -16 55 -32 55 -13 0 -19 -7
-20 -22 0 -13 -6 -41 -13 -63 l-13 -40 -13 63 c-10 49 -16 62 -31 62 -11 0
-19 -3 -19 -7z"/>
<path d="M3086 192 c-5 -8 -66 -173 -66 -179 0 -2 9 -3 19 -3 11 0 23 9 26 20
9 28 70 28 85 0 6 -11 19 -20 30 -20 18 0 18 3 -6 68 -43 117 -46 122 -65 122
-10 0 -20 -4 -23 -8z"/>
<path d="M3406 192 c-5 -8 -66 -173 -66 -179 0 -2 9 -3 19 -3 11 0 23 9 26 20
9 28 70 28 85 0 6 -11 19 -20 30 -20 18 0 18 3 -6 68 -43 117 -46 122 -65 122
-10 0 -20 -4 -23 -8z"/>
<path d="M3540 105 c0 -88 2 -95 20 -95 16 0 19 8 22 62 l3 63 40 -63 c24 -37
47 -62 58 -62 15 0 17 11 17 95 0 88 -2 95 -20 95 -16 0 -19 -8 -22 -57 l-3
-57 -38 57 c-24 38 -44 57 -57 57 -19 0 -20 -7 -20 -95z"/>
<path d="M3860 105 c0 -88 2 -95 20 -95 16 0 19 8 22 62 l3 63 40 -63 c24 -37
47 -62 58 -62 15 0 17 11 17 95 0 88 -2 95 -20 95 -16 0 -19 -8 -22 -57 l-3
-57 -38 57 c-24 38 -44 57 -57 57 -19 0 -20 -7 -20 -95z"/>
<path d="M4200 105 l0 -95 70 0 c56 0 70 3 70 15 0 11 -12 15 -50 15 -47 0
-50 2 -50 25 0 23 4 25 45 25 33 0 45 4 45 15 0 11 -12 15 -45 15 -41 0 -45 2
-45 25 0 23 3 25 50 25 38 0 50 4 50 15 0 12 -14 15 -70 15 l-70 0 0 -95z"/>
<path d="M4360 105 c0 -88 1 -95 20 -95 16 0 20 7 20 30 0 25 4 30 24 30 17 0
27 -9 36 -30 8 -18 20 -30 31 -30 23 0 23 3 4 39 -13 26 -13 30 0 41 17 14 20
63 5 91 -9 16 -22 19 -75 19 l-65 0 0 -95z"/>
<path d="M4530 105 c0 -88 2 -95 20 -95 16 0 19 8 22 62 l3 63 40 -63 c24 -37
47 -62 58 -62 15 0 17 11 17 95 0 88 -2 95 -20 95 -16 0 -19 -8 -22 -57 l-3
-57 -38 57 c-24 38 -44 57 -57 57 -19 0 -20 -7 -20 -95z"/>
<path d="M4780 105 c0 -88 1 -95 20 -95 16 0 20 7 20 30 0 28 2 30 38 30 47 0
72 24 72 68 0 47 -22 62 -91 62 l-59 0 0 -95z"/>
<path d="M4986 192 c-5 -8 -66 -173 -66 -179 0 -2 9 -3 19 -3 11 0 23 9 26 20
9 28 70 28 85 0 6 -11 19 -20 30 -20 18 0 18 3 -6 68 -43 117 -46 122 -65 122
-10 0 -20 -4 -23 -8z"/>
<path d="M5120 105 l0 -95 60 0 c80 0 100 19 100 95 0 76 -20 95 -100 95 l-60
0 0 -95z"/>
<path d="M5356 192 c-5 -8 -66 -173 -66 -179 0 -2 9 -3 19 -3 11 0 23 9 26 20
9 28 70 28 85 0 6 -11 19 -20 30 -20 18 0 18 3 -6 68 -43 117 -46 122 -65 122
-10 0 -20 -4 -23 -8z"/>
<path d="M5550 105 c0 -88 1 -95 20 -95 16 0 20 7 20 30 0 28 2 30 38 30 47 0
72 24 72 68 0 47 -22 62 -91 62 l-59 0 0 -95z"/>
<path d="M5710 105 l0 -95 70 0 c56 0 70 3 70 15 0 11 -12 15 -50 15 -47 0
-50 2 -50 25 0 23 4 25 45 25 33 0 45 4 45 15 0 11 -12 15 -45 15 -41 0 -45 2
-45 25 0 23 3 25 50 25 38 0 50 4 50 15 0 12 -14 15 -70 15 l-70 0 0 -95z"/>
<path d="M5870 105 c0 -88 1 -95 20 -95 18 0 20 7 21 58 l0 57 22 -42 c11 -24
27 -43 34 -43 7 0 21 19 32 43 l19 42 1 -57 c1 -51 3 -58 21 -58 19 0 20 7 20
95 0 88 -1 95 -20 95 -14 0 -28 -16 -48 -56 l-28 -56 -25 56 c-19 44 -29 56
-46 56 -22 0 -23 -3 -23 -95z"/>
<path d="M6080 105 l0 -95 70 0 c56 0 70 3 70 15 0 11 -12 15 -50 15 -47 0
-50 2 -50 25 0 23 4 25 45 25 33 0 45 4 45 15 0 11 -12 15 -45 15 -41 0 -45 2
-45 25 0 23 3 25 50 25 38 0 50 4 50 15 0 12 -14 15 -70 15 l-70 0 0 -95z"/>
<path d="M6240 105 c0 -88 1 -95 20 -95 16 0 20 7 20 30 0 25 4 30 24 30 17 0
27 -9 36 -30 8 -18 20 -30 31 -30 23 0 23 3 4 39 -13 26 -13 30 0 41 17 14 20
63 5 91 -9 16 -22 19 -75 19 l-65 0 0 -95z"/>
<path d="M6470 105 c0 -88 2 -95 20 -95 16 0 19 8 22 62 l3 63 40 -63 c24 -37
47 -62 58 -62 15 0 17 11 17 95 0 88 -2 95 -20 95 -16 0 -19 -8 -22 -57 l-3
-57 -38 57 c-24 38 -44 57 -57 57 -19 0 -20 -7 -20 -95z"/>
<path d="M6866 192 c-5 -8 -66 -173 -66 -179 0 -2 9 -3 19 -3 11 0 23 9 26 20
9 28 70 28 85 0 6 -11 19 -20 30 -20 18 0 18 3 -6 68 -43 117 -46 122 -65 122
-10 0 -20 -4 -23 -8z"/>
<path d="M6990 105 c0 -88 1 -95 20 -95 17 0 20 7 20 40 l0 40 40 0 40 0 0
-40 c0 -33 3 -40 20 -40 19 0 20 7 20 95 0 88 -1 95 -20 95 -17 0 -20 -7 -20
-40 l0 -40 -40 0 -40 0 0 40 c0 33 -3 40 -20 40 -19 0 -20 -7 -20 -95z"/>
<path d="M7240 105 c0 -88 1 -95 20 -95 14 0 20 7 20 24 0 30 9 56 20 56 5 0
19 -18 31 -40 14 -24 30 -40 41 -40 24 0 23 4 -12 62 l-31 49 32 40 c26 33 28
39 13 39 -10 0 -35 -17 -56 -37 l-38 -37 0 37 c0 30 -4 37 -20 37 -19 0 -20
-7 -20 -95z"/>
<path d="M7421 174 c-14 -18 -21 -41 -21 -69 0 -61 29 -95 81 -95 22 0 49 4
59 10 44 24 49 136 7 165 -12 8 -40 15 -63 15 -34 0 -47 -5 -63 -26z"/>
<path d="M7796 192 c-5 -8 -66 -173 -66 -179 0 -2 9 -3 19 -3 11 0 23 9 26 20
9 28 70 28 85 0 6 -11 19 -20 30 -20 18 0 18 3 -6 68 -43 117 -46 122 -65 122
-10 0 -20 -4 -23 -8z"/>
<path d="M7990 105 c0 -88 1 -95 20 -95 18 0 20 7 21 58 l0 57 22 -42 c11 -24
27 -43 34 -43 7 0 21 19 32 43 l19 42 1 -57 c1 -51 3 -58 21 -58 19 0 20 7 20
95 0 88 -1 95 -20 95 -14 0 -28 -16 -48 -56 l-28 -56 -25 56 c-19 44 -29 56
-46 56 -22 0 -23 -3 -23 -95z"/>
<path d="M8266 192 c-5 -8 -66 -173 -66 -179 0 -2 9 -3 19 -3 11 0 23 9 26 20
9 28 70 28 85 0 6 -11 19 -20 30 -20 18 0 18 3 -6 68 -43 117 -46 122 -65 122
-10 0 -20 -4 -23 -8z"/>
<path d="M8400 105 c0 -88 1 -95 20 -95 14 0 20 7 20 24 0 30 9 56 20 56 5 0
19 -18 31 -40 14 -24 30 -40 41 -40 24 0 23 4 -12 62 l-31 49 32 40 c26 33 28
39 13 39 -10 0 -35 -17 -56 -37 l-38 -37 0 37 c0 30 -4 37 -20 37 -19 0 -20
-7 -20 -95z"/>
<path d="M8626 192 c-5 -8 -66 -173 -66 -179 0 -2 9 -3 19 -3 11 0 23 9 26 20
9 28 70 28 85 0 6 -11 19 -20 30 -20 18 0 18 3 -6 68 -43 117 -46 122 -65 122
-10 0 -20 -4 -23 -8z"/>
<path d="M9096 192 c-5 -8 -66 -173 -66 -179 0 -2 9 -3 19 -3 11 0 23 9 26 20
9 28 70 28 85 0 6 -11 19 -20 30 -20 18 0 18 3 -6 68 -43 117 -46 122 -65 122
-10 0 -20 -4 -23 -8z"/>
<path d="M9230 105 c0 -88 1 -95 20 -95 16 0 20 7 20 30 0 25 4 30 24 30 17 0
27 -9 36 -30 8 -18 20 -30 31 -30 23 0 23 3 4 39 -13 26 -13 30 0 41 17 14 20
63 5 91 -9 16 -22 19 -75 19 l-65 0 0 -95z"/>
</g>
</svg>