<svg viewBox="0 0 24 24" fill="currentColor" height="1em" width="1em"><path d="M20 2H4c-1.103 0 -2 0.894 -2 1.992v12.017C2 17.106 2.897 18 4 18h3v4l6.351 -4H20c1.103 0 2 -0.894 2 -1.992V3.992A2 2 0 0 0 20 2m-9 8a2 2 0 1 1 -2 -2c0.086 0 0.167 0.015 0.25 0.025 0.082 -0.014 0.164 -0.025 0.25 -0.025A1.5 1.5 0 0 1 11 9.5c0 0.086 -0.012 0.168 -0.025 0.25 0.01 0.083 0.025 0.165 0.025 0.25m4 2a2 2 0 0 1 -2 -2c0 -0.086 0.015 -0.167 0.025 -0.25A1.6 1.6 0 0 1 13 9.5 1.5 1.5 0 0 1 14.5 8q0.128 0.002 0.25 0.025c0.083 -0.01 0.164 -0.025 0.25 -0.025a2 2 0 0 1 0 4"/></svg>