<?xml version="1.0" standalone="no"?>
<!DOCTYPE svg PUBLIC "-//W3C//DTD SVG 20010904//EN"
 "http://www.w3.org/TR/2001/REC-SVG-20010904/DTD/svg10.dtd">
<svg version="1.0" xmlns="http://www.w3.org/2000/svg"
 width="1001.000000pt" height="1001.000000pt" viewBox="0 0 1001.000000 1001.000000"
 preserveAspectRatio="xMidYMid meet">
<metadata>
Created by potrace 1.14, written by Peter Selinger 2001-2017
</metadata>
<g transform="translate(0.000000,1001.000000) scale(0.100000,-0.100000)"
fill="#000000" stroke="none">
<path d="M9492 6584 c-97 -26 -203 -105 -242 -180 -8 -16 -18 -31 -21 -34 -13
-10 -39 -138 -39 -187 0 -62 27 -154 62 -209 81 -127 209 -196 356 -190 87 4
104 7 153 30 101 48 161 108 206 204 56 120 54 255 -6 364 -95 171 -284 252
-469 202z"/>
<path d="M355 6080 c-1 -3 12 -62 29 -132 22 -90 29 -136 24 -160 -4 -18 -10
-44 -13 -58 -6 -32 -101 -449 -150 -660 -20 -85 -38 -166 -41 -180 -3 -14 -14
-61 -24 -105 -10 -44 -28 -120 -39 -170 -12 -49 -44 -188 -71 -309 -28 -120
-50 -222 -50 -227 0 -5 125 -9 288 -9 l288 0 18 98 c10 53 22 114 27 135 l10
37 173 0 173 0 17 -92 c10 -51 23 -112 28 -135 l10 -43 284 0 c221 0 284 3
284 13 0 6 -7 41 -16 77 -9 36 -18 76 -20 90 -3 13 -41 191 -85 395 -44 203
-94 433 -110 510 -17 77 -38 178 -49 225 -10 47 -35 162 -55 255 -20 94 -38
179 -41 190 -2 11 -7 34 -10 50 -3 17 -7 35 -8 40 -1 6 -10 46 -20 90 l-18 81
-415 0 c-228 0 -416 -3 -418 -6z m496 -765 c6 -38 13 -83 15 -98 2 -16 13 -81
23 -145 11 -64 22 -133 25 -152 3 -19 9 -55 14 -80 13 -76 19 -72 -108 -72
-63 1 -114 4 -114 9 1 4 5 28 8 53 3 25 8 55 10 66 2 12 7 39 11 60 3 22 23
146 45 276 22 130 41 240 41 245 1 9 13 -52 30 -162z"/>
<path d="M8157 6075 c2 -7 17 -69 32 -139 22 -97 27 -136 20 -159 -5 -18 -12
-44 -14 -59 -5 -26 -75 -334 -161 -708 -20 -85 -37 -162 -39 -170 -30 -135
-120 -529 -130 -570 -8 -30 -16 -66 -19 -80 -5 -28 -15 -76 -23 -102 -4 -17
14 -18 286 -18 l289 0 6 28 c3 15 8 42 11 60 3 18 12 64 20 103 8 39 15 72 15
75 0 2 79 4 175 4 l174 0 7 -37 c3 -21 15 -80 25 -132 11 -51 19 -95 19 -97 0
-2 128 -4 285 -4 194 0 285 3 285 11 0 5 -11 61 -25 122 -14 62 -28 123 -30
137 -5 28 -13 65 -19 95 -10 49 -58 264 -67 305 -6 25 -13 56 -15 69 -3 13
-54 253 -115 535 -60 281 -119 554 -130 606 -11 52 -22 102 -24 110 -2 8 -4
17 -4 20 -1 3 -190 6 -420 6 -309 0 -418 -3 -414 -11z m518 -892 c3 -18 7 -50
10 -70 3 -21 8 -54 11 -73 4 -19 8 -44 9 -55 2 -11 5 -36 9 -55 22 -131 25
-154 22 -157 -6 -6 -216 -7 -222 0 -5 5 0 50 23 182 7 43 10 64 17 110 3 22 8
49 10 61 2 12 7 45 11 75 4 30 9 57 11 60 2 3 6 24 9 45 2 21 9 66 15 99 5 33
10 65 11 70 1 8 35 -177 54 -292z"/>
<path d="M1621 6060 c-5 -3 25 -88 66 -190 l75 -185 -1 -807 0 -808 270 0 269
0 0 33 c1 17 1 139 1 270 l0 237 97 1 c121 1 168 5 259 24 172 35 317 128 388
248 32 55 73 175 81 236 3 25 7 57 10 71 9 50 5 260 -6 336 -44 307 -176 450
-480 519 -70 16 -1007 30 -1029 15z m805 -405 c100 -30 136 -111 137 -308 0
-221 -61 -319 -209 -334 l-53 -6 0 332 1 331 37 0 c21 0 60 -7 87 -15z"/>
<path d="M3314 6061 c-2 -2 -4 -451 -4 -998 l0 -993 270 0 270 0 0 995 c0 547
-3 995 -7 996 -25 3 -525 3 -529 0z"/>
<path d="M3980 6058 c0 -4 33 -91 74 -195 l74 -188 -2 -803 -1 -802 271 0 271
0 -1 261 c-1 143 1 265 4 269 3 5 50 10 105 10 280 4 466 71 589 212 91 104
137 262 141 483 7 416 -119 639 -405 719 -54 15 -68 18 -165 32 -65 9 -955 12
-955 2z m804 -400 c114 -33 139 -91 140 -323 1 -115 -2 -137 -23 -188 -34 -84
-83 -120 -183 -136 -40 -7 -48 -5 -49 8 -3 54 -4 637 -1 644 5 11 70 8 116 -5z"/>
<path d="M6624 6061 c-2 -2 -4 -103 -4 -223 l0 -218 199 0 c150 0 200 -3 203
-12 2 -7 3 -356 2 -775 l0 -763 271 0 270 0 0 775 0 775 182 0 c203 0 186 -7
198 80 4 24 8 47 10 50 2 3 6 26 10 50 3 25 8 52 10 60 2 8 7 31 10 50 3 19
10 59 16 88 6 30 8 57 4 60 -7 7 -1374 10 -1381 3z"/>
<path d="M6083 5156 c-12 -6 -52 -50 -90 -97 l-68 -85 0 -521 0 -521 -62 1
c-35 0 -63 3 -64 6 -1 3 -2 155 -3 336 l-1 330 -205 0 -205 0 -2 -320 c0 -176
-2 -327 -2 -336 -1 -14 -244 -16 -2688 -16 l-2688 0 -3 -36 -3 -37 68 0 c571
-5 5375 0 5383 5 6 4 10 119 10 338 l0 332 132 0 132 -1 1 -334 c1 -184 3
-337 4 -340 1 -4 48 -4 232 -1 l36 1 0 540 0 541 58 74 58 75 58 0 58 0 -1
-610 c-1 -335 1 -612 4 -615 10 -10 268 -10 271 0 2 6 2 48 2 95 l-1 85 43 -4
c26 -2 43 1 44 8 6 76 6 76 -45 74 -32 -1 -46 2 -43 10 2 7 20 11 45 9 44 -4
51 6 44 59 -3 23 -9 27 -42 27 -32 1 -40 -3 -43 -21 -4 -18 -5 -17 -6 6 -1 28
2 29 57 29 20 0 32 5 33 14 1 8 2 20 3 27 4 26 -14 46 -43 45 -56 -2 -56 12
-1 67 l53 54 48 -47 c63 -61 64 -78 4 -76 l-45 1 0 -42 c0 -43 0 -43 38 -43
20 0 40 5 44 11 4 7 7 -4 7 -23 0 -21 -3 -29 -7 -20 -4 9 -22 16 -44 17 l-38
1 0 -45 0 -45 45 4 45 3 0 -142 0 -143 28 -1 c15 0 628 -1 1362 -1 l1335 0 3
33 c2 17 -1 35 -6 38 -6 3 -602 6 -1326 5 -948 -1 -1316 2 -1319 10 -2 6 -3
107 -2 225 l0 214 -65 66 c-118 119 -97 116 -195 21 l-85 -84 0 -228 0 -229
-62 3 -63 3 -1 608 c-1 334 -4 611 -8 614 -12 13 -190 12 -213 -1z m614 -878
c-3 -7 -5 -2 -5 12 0 14 2 19 5 13 2 -7 2 -19 0 -25z m0 -110 c-3 -8 -6 -5 -6
6 -1 11 2 17 5 13 3 -3 4 -12 1 -19z"/>
<path d="M6138 5049 c-21 -12 -25 -74 -5 -93 7 -6 25 -9 42 -6 28 5 30 8 33
58 4 51 3 52 -25 52 -15 0 -36 -5 -45 -11z"/>
<path d="M6144 4892 c-19 -3 -21 -9 -20 -55 l1 -52 40 0 39 0 1 43 c1 23 -2
46 -5 50 -8 12 -32 18 -56 14z"/>
<path d="M6125 4722 c-11 -11 -4 -90 8 -100 7 -6 26 -10 42 -9 28 2 30 6 33
46 2 24 -2 49 -8 55 -11 11 -66 17 -75 8z"/>
<path d="M6022 4521 l3 -56 40 0 40 1 0 54 0 55 -43 1 -43 1 3 -56z"/>
<path d="M6120 4522 l0 -57 33 1 c17 1 38 2 45 3 9 1 12 16 10 53 l-3 52 -42
3 -43 2 0 -57z"/>
<path d="M5480 4476 c0 -39 15 -56 52 -56 30 0 48 23 48 63 0 23 -4 25 -50 25
-50 1 -50 1 -50 -32z"/>
<path d="M5608 4503 c-4 -7 -3 -52 1 -75 0 -5 19 -8 41 -8 43 0 49 6 53 55 2
29 0 30 -45 33 -25 2 -48 -1 -50 -5z"/>
<path d="M6020 4382 c0 -55 13 -72 50 -65 31 5 37 16 36 66 l-1 42 -42 3 -43
3 0 -49z"/>
<path d="M6120 4375 c0 -58 3 -61 55 -56 26 2 31 14 33 66 l2 45 -45 0 -45 0
0 -55z"/>
<path d="M5482 4368 l3 -43 45 0 45 0 2 41 3 41 -51 2 -50 1 3 -42z"/>
<path d="M5611 4392 c-5 -10 -8 -27 -6 -38 2 -10 4 -22 4 -25 2 -10 91 -4 93
6 8 56 -4 75 -47 75 -23 0 -38 -6 -44 -18z"/>
<path d="M5492 4301 c-8 -5 -12 -22 -10 -42 3 -30 7 -34 36 -37 40 -4 62 12
62 44 0 35 -54 57 -88 35z"/>
<path d="M5606 4294 c-2 -6 -3 -20 -1 -30 2 -11 4 -25 4 -32 1 -9 15 -12 48
-10 43 3 47 5 46 28 -1 61 0 60 -48 58 -24 0 -46 -7 -49 -14z"/>
<path d="M6033 4283 c-18 -6 -17 -88 1 -102 8 -7 27 -11 42 -9 25 3 28 7 31
51 2 26 2 47 1 47 -2 0 -17 4 -33 8 -17 5 -36 7 -42 5z"/>
<path d="M6142 4277 c-17 -8 -22 -19 -22 -47 0 -43 14 -60 51 -60 30 0 36 11
38 71 1 31 -2 37 -22 41 -13 2 -33 0 -45 -5z"/>
<path d="M5493 4203 c-8 -2 -13 -22 -13 -44 l0 -39 50 0 50 0 0 39 c0 32 -4
40 -22 45 -26 7 -48 7 -65 -1z"/>
<path d="M5609 4200 c-5 -19 -6 -57 -2 -67 8 -19 93 -17 94 2 6 69 3 74 -46
72 -25 -1 -46 -4 -46 -7z"/>
<path d="M6025 4132 c-10 -10 -5 -88 7 -100 16 -16 55 -15 65 1 10 16 11 68 1
89 -7 16 -60 23 -73 10z"/>
<path d="M6133 4133 c-17 -6 -17 -88 1 -102 16 -13 65 -11 68 4 13 85 -13 121
-69 98z"/>
<path d="M5485 4101 c-3 -2 -5 -22 -5 -43 l0 -38 50 0 50 0 0 40 c0 22 -3 40
-7 41 -42 4 -84 4 -88 0z"/>
<path d="M5638 4102 c-16 -2 -29 -9 -30 -15 -4 -36 -3 -43 5 -54 5 -7 28 -13
51 -13 41 0 41 0 42 39 0 43 -11 50 -68 43z"/>
<path d="M5485 4002 c-3 -3 -5 -23 -5 -44 l0 -38 50 0 50 0 0 40 c0 35 -3 40
-22 41 -13 0 -33 2 -46 3 -12 2 -24 0 -27 -2z"/>
<path d="M5621 3998 c-17 -6 -21 -14 -17 -35 2 -16 5 -32 5 -36 1 -4 22 -7 48
-5 47 3 47 3 48 41 1 20 -3 37 -9 38 -6 0 -21 2 -32 3 -12 1 -31 -1 -43 -6z"/>
<path d="M89 3591 c-19 -15 -23 -28 -23 -76 0 -48 4 -61 23 -77 33 -26 86 -23
116 7 19 18 25 35 25 70 0 35 -6 52 -25 70 -30 31 -83 33 -116 6z m99 -24 c17
-14 15 -92 -3 -107 -22 -18 -64 -15 -80 6 -18 25 -12 94 9 110 17 12 52 8 74
-9z"/>
<path d="M268 3563 c-6 -84 2 -143 18 -143 10 0 13 8 10 25 -5 28 4 36 44 39
62 4 90 66 50 106 -15 15 -33 20 -69 20 l-49 0 -4 -47z m107 -5 c9 -27 -12
-48 -49 -48 -29 0 -31 3 -31 33 0 23 5 34 20 38 30 8 54 -1 60 -23z"/>
<path d="M420 3594 c0 -9 8 -14 18 -13 36 3 38 -1 37 -71 -1 -70 7 -101 22
-87 4 5 8 41 9 80 1 40 2 75 3 79 0 3 14 4 31 2 24 -4 29 -2 24 10 -9 23 -144
23 -144 0z"/>
<path d="M588 3563 c-5 -79 2 -143 16 -143 9 0 13 25 13 95 0 69 -4 95 -13 95
-7 0 -13 -18 -16 -47z"/>
<path d="M659 3585 c-4 -125 0 -165 17 -165 11 0 15 9 14 33 -1 17 -2 48 -1
67 l1 35 25 -53 c14 -29 29 -51 35 -47 5 3 18 26 29 50 11 25 22 45 24 45 2 0
4 -29 3 -65 -2 -48 2 -65 11 -65 13 0 15 9 16 120 1 90 -20 93 -58 8 l-29 -63
-28 63 c-29 65 -57 82 -59 37z"/>
<path d="M922 3583 c-5 -16 -21 -58 -35 -95 -24 -64 -25 -68 -8 -68 12 0 21
10 25 24 6 24 11 25 78 17 4 -1 10 -10 13 -21 3 -11 13 -20 22 -20 8 0 13 6
11 13 -3 6 -18 49 -34 95 -30 89 -53 106 -72 55z m46 -60 c11 -32 10 -33 -19
-33 -33 0 -33 1 -17 47 13 36 20 34 36 -14z"/>
<path d="M1070 3515 l0 -95 60 0 c33 0 60 4 60 9 0 12 -19 17 -57 16 -18 -1
-33 4 -34 9 -1 6 -1 44 -1 84 0 54 -4 72 -14 72 -11 0 -14 -21 -14 -95z"/>
<path d="M1210 3525 c0 -47 0 -88 -1 -92 0 -5 6 -9 14 -11 12 -2 14 15 14 93
0 73 -3 95 -13 95 -11 0 -14 -20 -14 -85z"/>
<path d="M1291 3591 c-36 -36 -25 -64 34 -84 28 -10 41 -21 43 -35 4 -23 -8
-27 -73 -22 -26 2 -28 0 -15 -15 11 -13 25 -16 58 -12 49 5 64 19 60 56 -3 24
-9 30 -63 53 -45 20 -39 42 13 46 53 4 52 26 -1 30 -26 2 -42 -3 -56 -17z"/>
<path d="M1472 3583 c-5 -16 -21 -58 -35 -95 -24 -64 -25 -68 -8 -68 11 0 21
9 25 23 8 33 74 32 89 -1 10 -23 43 -32 35 -9 -3 6 -17 49 -33 95 -31 89 -54
107 -73 55z m57 -85 c1 -5 -13 -8 -30 -8 -26 0 -30 3 -24 18 3 9 9 30 12 47
l6 30 18 -40 c10 -22 18 -43 18 -47z"/>
<path d="M1610 3592 c-36 -29 -22 -66 32 -84 31 -11 44 -21 46 -36 4 -23 -8
-27 -73 -22 -26 2 -27 0 -16 -14 18 -21 85 -21 106 0 30 30 15 66 -37 91 -66
32 -62 58 9 55 46 -2 38 22 -9 26 -22 2 -43 -3 -58 -16z"/>
<path d="M1759 3598 c-1 -27 -1 -134 0 -155 1 -13 7 -23 15 -23 19 0 18 181
-1 188 -7 2 -13 -2 -14 -10z"/>
<path d="M1950 3515 c0 -78 3 -95 15 -95 10 0 15 10 15 34 0 32 2 34 28 30 19
-3 38 3 56 17 23 18 27 27 22 53 -8 42 -31 56 -88 56 l-48 0 0 -95z m106 43
c3 -10 0 -25 -6 -33 -15 -18 -70 -20 -71 -2 -3 25 3 52 13 58 17 11 57 -3 64
-23z"/>
<path d="M2119 3600 c0 -5 0 -32 0 -60 0 -27 0 -66 0 -85 l1 -35 65 0 c50 0
63 3 59 13 -3 9 -21 14 -45 14 -42 0 -61 15 -52 40 3 8 21 13 44 13 28 0 39 4
39 15 0 11 -9 15 -33 13 -42 -2 -56 7 -50 32 5 19 20 24 71 22 13 -1 22 5 22
13 0 12 -14 15 -60 15 -33 0 -60 -4 -61 -10z"/>
<path d="M2268 3594 c-2 -9 -2 -52 0 -95 3 -57 7 -79 17 -79 9 0 13 17 13 60
-1 33 1 63 4 65 3 3 24 -24 47 -60 60 -92 71 -87 71 30 0 76 -3 95 -15 95 -11
0 -15 -16 -17 -66 l-3 -67 -45 66 c-45 67 -66 81 -72 51z"/>
<path d="M2486 3588 c-48 -43 -42 -133 10 -157 33 -15 76 -14 98 2 13 9 17 23
14 52 -3 38 -5 39 -40 41 -28 2 -35 -1 -31 -12 3 -8 15 -14 27 -14 29 0 29
-40 0 -50 -26 -10 -74 8 -76 28 -5 60 -3 73 13 88 11 10 34 16 58 16 53 -1 45
23 -8 26 -29 2 -46 -3 -65 -20z"/>
<path d="M2700 3606 c0 -2 -15 -44 -34 -95 -30 -81 -32 -91 -16 -91 10 0 20
10 24 23 8 33 74 32 89 -1 10 -23 43 -32 35 -9 -3 6 -18 49 -34 95 -21 61 -33
82 -46 82 -10 0 -18 -2 -18 -4z m38 -83 c11 -32 10 -33 -19 -33 -33 0 -33 1
-17 47 13 36 20 34 36 -14z"/>
<path d="M2821 3523 c22 -97 25 -103 44 -103 8 0 17 15 21 38 4 20 12 47 18
60 12 22 13 20 29 -37 11 -38 22 -61 31 -61 13 0 19 14 30 76 3 12 9 39 15 60
14 50 14 54 -3 54 -9 0 -18 -20 -26 -52 -19 -85 -22 -86 -39 -18 -18 67 -41
87 -48 40 -2 -14 -8 -43 -14 -64 -8 -29 -13 -36 -20 -25 -5 8 -9 23 -9 35 0
34 -21 84 -35 84 -10 0 -9 -19 6 -87z"/>
<path d="M3082 3583 c-5 -15 -21 -58 -35 -95 -24 -64 -25 -68 -8 -68 12 0 21
10 25 24 5 21 11 24 43 21 27 -1 40 -8 46 -23 9 -20 37 -31 37 -14 -1 4 -15
45 -33 92 -35 92 -57 111 -75 63z m32 -91 c-35 -5 -38 1 -23 43 l14 37 17 -38
17 -39 -25 -3z"/>
<path d="M3221 3593 c-35 -29 -20 -68 32 -86 30 -10 43 -20 45 -35 3 -23 -10
-27 -67 -22 -15 1 -22 -3 -19 -12 7 -18 97 -16 109 3 13 20 7 61 -11 70 -8 4
-28 14 -45 21 -45 20 -39 42 13 46 52 4 52 25 1 30 -24 2 -43 -3 -58 -15z"/>
<path d="M3402 3583 c-5 -16 -21 -58 -35 -95 -24 -64 -25 -68 -8 -68 11 0 21
9 25 24 6 23 21 26 78 17 4 -1 10 -10 13 -21 3 -11 13 -20 22 -20 8 0 13 6 11
13 -3 6 -17 49 -33 95 -31 89 -54 107 -73 55z m47 -61 c9 -31 8 -32 -20 -32
-33 0 -33 1 -17 47 13 37 24 32 37 -15z"/>
<path d="M3549 3606 c-2 -2 -3 -45 -1 -95 3 -70 7 -91 17 -91 11 0 14 14 12
61 -2 33 0 62 4 64 3 3 25 -25 48 -60 60 -92 71 -87 71 31 0 84 -2 95 -17 92
-14 -2 -16 -14 -14 -66 1 -34 0 -62 -2 -62 -3 0 -24 29 -48 65 -39 58 -57 74
-70 61z"/>
<path d="M3800 3606 c-1 -3 -1 -40 -1 -81 0 -41 0 -82 1 -90 0 -8 6 -15 14
-15 19 0 18 181 -1 188 -7 2 -13 1 -13 -2z"/>
<path d="M3870 3515 c0 -74 3 -95 14 -95 10 0 13 16 12 65 0 36 1 65 4 65 3 0
24 -29 48 -65 60 -93 72 -88 72 30 0 78 -3 95 -15 95 -15 0 -19 -20 -15 -94 2
-48 -7 -42 -56 34 -54 85 -64 80 -64 -35z"/>
<path d="M4042 3598 c3 -7 16 -15 29 -18 23 -5 25 -9 24 -70 -1 -74 2 -90 19
-90 9 0 12 25 12 83 -1 63 2 81 13 79 21 -4 52 8 46 19 -10 15 -148 12 -143
-3z"/>
<path d="M4210 3515 l0 -95 60 0 c42 0 60 4 60 13 0 8 -14 13 -35 14 -51 1
-64 9 -58 32 4 17 13 21 44 21 28 0 39 4 39 15 0 10 -9 14 -29 11 -37 -4 -48
3 -52 34 -4 24 -2 25 44 23 36 -2 47 1 47 12 0 12 -13 15 -60 15 l-60 0 0 -95z"/>
<path d="M4368 3563 c-6 -85 2 -143 18 -143 11 0 13 6 9 19 -3 11 1 26 10 35
21 21 52 6 61 -29 4 -15 13 -25 25 -25 17 0 17 2 3 36 -13 31 -13 39 -1 53 19
22 19 62 0 83 -12 13 -31 18 -69 18 l-52 0 -4 -47z m93 18 c12 -2 20 -33 14
-52 -5 -14 -16 -19 -43 -19 -36 0 -37 1 -35 37 1 21 2 38 2 38 1 1 54 -3 62
-4z"/>
<path d="M4540 3515 c0 -78 3 -95 15 -95 12 0 15 12 13 60 -1 32 0 61 3 64 3
3 24 -24 49 -59 61 -91 70 -87 70 30 0 78 -3 95 -15 95 -15 0 -19 -20 -15 -94
2 -46 -5 -41 -60 41 -51 77 -60 71 -60 -42z"/>
<path d="M4788 3583 c-2 -16 -2 -58 0 -95 3 -51 7 -68 18 -68 10 0 13 8 10 26
-5 26 0 30 44 38 60 10 80 39 61 89 -11 29 -29 37 -86 37 -40 0 -44 -2 -47
-27z m107 -23 c9 -30 -13 -52 -48 -48 -27 3 -30 7 -31 36 -1 30 1 32 36 32 28
0 38 -5 43 -20z"/>
<path d="M4982 3583 c-5 -16 -21 -58 -35 -95 -24 -64 -25 -68 -8 -68 11 0 21
9 25 24 6 23 21 26 78 17 4 -1 10 -10 13 -21 3 -11 13 -20 22 -20 8 0 13 6 11
13 -3 6 -17 49 -33 95 -31 89 -54 107 -73 55z m46 -60 c11 -32 10 -33 -19 -33
-33 0 -33 1 -17 47 13 36 20 34 36 -14z"/>
<path d="M5130 3515 l0 -95 50 0 c41 0 56 5 77 26 23 23 25 31 20 77 -8 66
-31 87 -98 87 l-49 0 0 -95z m108 47 c6 -9 12 -32 12 -53 0 -39 -11 -53 -48
-62 -41 -10 -50 13 -43 124 1 20 61 14 79 -9z"/>
<path d="M5352 3583 c-62 -167 -61 -163 -42 -163 10 0 20 10 24 23 8 33 74 32
89 -1 10 -23 43 -32 35 -9 -3 6 -18 49 -34 95 -31 88 -53 105 -72 55z m41 -48
l16 -45 -31 0 c-27 0 -30 3 -23 23 3 12 9 32 12 45 3 12 7 22 8 22 2 0 10 -20
18 -45z"/>
<path d="M5559 3585 c-4 -112 0 -165 15 -165 9 0 16 12 18 33 3 28 6 32 29 29
34 -4 79 32 79 64 0 40 -33 64 -90 64 -46 0 -50 -2 -51 -25z m106 -27 c9 -26
-12 -48 -46 -48 -31 0 -39 21 -24 66 6 18 64 4 70 -18z"/>
<path d="M5718 3558 c-1 -29 -2 -72 0 -95 l3 -43 60 0 c44 0 59 4 59 14 0 9
-10 13 -29 12 -46 -3 -70 9 -64 33 4 17 13 21 44 21 29 0 39 4 39 15 0 9 -6
15 -12 14 -7 -1 -27 -1 -45 0 -29 1 -31 3 -24 29 7 24 11 27 48 25 28 -1 43 2
47 12 4 12 -7 15 -58 15 l-64 0 -4 -52z"/>
<path d="M5879 3578 c-2 -95 -1 -149 4 -154 14 -15 26 11 26 54 -2 70 0 71 27
19 21 -40 28 -46 40 -37 8 7 14 18 14 24 0 6 9 24 19 39 l19 29 -2 -66 c-2
-55 1 -66 13 -64 23 5 23 181 0 186 -10 2 -24 -17 -43 -60 l-29 -63 -30 63
c-33 69 -56 81 -58 30z"/>
<path d="M6090 3515 l0 -95 61 0 c44 0 60 3 57 13 -3 6 -22 12 -42 13 -67 1
-72 54 -5 54 26 0 39 4 39 14 0 9 -11 13 -33 13 -43 -1 -55 8 -50 36 4 21 9
23 49 20 34 -3 44 0 44 12 0 12 -13 15 -60 15 l-60 0 0 -95z"/>
<path d="M6250 3515 c0 -81 2 -95 16 -95 12 0 15 7 12 29 -3 23 0 31 15 35 21
5 57 -26 57 -49 0 -8 9 -15 20 -15 19 0 19 1 3 35 -16 33 -15 36 1 54 13 15
16 28 11 48 -11 45 -24 53 -81 53 l-54 0 0 -95z m99 61 c12 -8 10 -49 -4 -58
-20 -15 -63 -9 -67 10 -8 39 3 58 32 56 16 -1 33 -5 39 -8z"/>
<path d="M6419 3565 c0 -25 -1 -61 -1 -80 0 -60 2 -65 16 -65 10 0 14 22 14
95 1 77 -2 95 -13 95 -11 0 -15 -13 -16 -45z"/>
<path d="M6478 3553 c-5 -87 1 -133 17 -133 11 0 14 16 12 70 -1 39 -1 70 -1
70 1 0 23 -31 50 -70 26 -38 53 -70 61 -70 10 0 13 23 13 95 0 78 -3 95 -15
95 -15 0 -21 -39 -16 -104 3 -38 -9 -28 -55 44 -22 33 -44 60 -51 60 -7 0 -13
-22 -15 -57z"/>
<path d="M6660 3595 c0 -10 10 -15 28 -15 l28 0 0 -77 c-1 -63 2 -78 14 -78
12 0 15 15 14 78 0 79 3 85 49 78 4 0 7 6 7 14 0 12 -14 15 -70 15 -56 0 -70
-3 -70 -15z"/>
<path d="M6856 3568 c-8 -24 -24 -67 -35 -95 -18 -51 -18 -53 -1 -53 11 0 20
10 24 24 6 24 11 25 78 17 4 -1 10 -10 13 -21 6 -18 35 -29 35 -14 0 4 -14 47
-32 95 -38 104 -57 115 -82 47z m52 -45 c11 -32 10 -33 -19 -33 -32 0 -34 3
-18 49 13 36 21 32 37 -16z"/>
<path d="M7000 3606 c-1 -3 -1 -40 -1 -81 0 -41 0 -82 1 -90 0 -8 7 -15 16
-15 12 0 15 9 12 38 l-3 37 46 3 45 3 0 -38 c-1 -27 3 -38 14 -38 12 0 15 18
15 93 0 78 -2 92 -15 90 -9 -2 -15 -14 -15 -33 0 -42 -9 -52 -45 -49 -39 3
-44 7 -44 46 -1 17 -7 33 -13 35 -7 3 -13 2 -13 -1z"/>
<path d="M7250 3514 c0 -72 3 -95 13 -91 6 2 12 16 12 30 1 15 8 34 17 43 14
14 18 11 42 -30 15 -25 34 -46 42 -46 13 0 12 7 -7 38 -12 20 -26 41 -31 47
-15 17 -8 41 23 73 27 27 29 32 12 32 -10 0 -34 -18 -52 -40 -18 -22 -36 -38
-40 -36 -3 2 -6 20 -5 40 1 25 -2 36 -12 36 -11 0 -14 -20 -14 -96z"/>
<path d="M7430 3590 c-11 -11 -21 -26 -21 -32 -1 -7 -3 -24 -5 -38 -7 -60 31
-100 96 -100 66 0 97 114 45 165 -31 32 -86 34 -115 5z m101 -26 c6 -7 11 -30
11 -51 0 -50 -30 -76 -72 -62 -33 12 -38 21 -35 69 3 50 3 50 27 59 27 10 53
4 69 -15z"/>
<path d="M7590 3594 c0 -9 8 -14 18 -13 37 3 39 0 37 -81 -1 -68 1 -80 14 -78
13 3 16 18 15 81 0 77 2 81 39 78 9 -1 17 4 17 13 0 13 -13 16 -70 16 -57 0
-70 -3 -70 -16z"/>
<path d="M7800 3606 c0 -2 -15 -44 -34 -95 -30 -81 -32 -91 -16 -91 10 0 20
10 24 23 8 33 74 32 89 -1 12 -26 42 -31 34 -4 -32 104 -63 172 -79 172 -10 0
-18 -2 -18 -4z m33 -71 l16 -45 -31 0 c-25 0 -29 3 -23 18 3 9 9 29 12 45 3
15 7 27 8 27 2 0 10 -20 18 -45z"/>
<path d="M7997 3548 c1 -35 2 -78 2 -95 1 -22 6 -33 16 -33 12 0 14 12 12 60
-2 33 0 60 3 60 3 0 16 -21 28 -46 19 -38 25 -44 37 -34 8 7 15 18 15 24 0 6
9 25 20 41 l20 30 -4 -57 c-2 -31 0 -62 4 -68 17 -27 25 3 25 87 -1 113 -18
122 -60 32 l-30 -62 -27 62 c-19 41 -34 61 -46 61 -14 0 -17 -9 -15 -62z"/>
<path d="M8270 3606 c0 -2 -15 -44 -34 -95 -30 -81 -32 -91 -16 -91 10 0 20
10 24 24 6 23 21 26 78 17 4 -1 10 -10 13 -21 3 -11 13 -20 21 -20 18 0 18 -6
-10 77 -31 90 -43 113 -61 113 -8 0 -15 -2 -15 -4z m38 -83 c11 -32 10 -33
-19 -33 -33 0 -33 1 -17 47 13 36 20 34 36 -14z"/>
<path d="M8410 3515 c0 -77 3 -95 15 -95 10 0 14 9 11 30 -2 19 3 35 14 45 16
15 19 13 44 -30 15 -25 34 -45 42 -45 16 0 9 20 -27 72 -25 35 -24 50 6 78 14
13 25 27 25 32 0 20 -27 5 -62 -34 -36 -41 -37 -42 -39 -18 -1 14 -1 33 0 43
1 9 -4 17 -13 17 -13 0 -16 -16 -16 -95z"/>
<path d="M8630 3606 c0 -2 -15 -44 -34 -95 -30 -81 -32 -91 -16 -91 10 0 20
10 24 24 5 21 11 24 43 21 27 -1 40 -8 46 -23 8 -18 37 -32 37 -19 0 9 -50
147 -59 166 -10 17 -41 31 -41 17z m38 -83 c11 -32 10 -33 -19 -33 -33 0 -33
1 -17 47 13 36 20 34 36 -14z"/>
<path d="M8763 3595 c-14 -10 -20 -23 -18 -40 3 -32 3 -32 51 -48 39 -14 57
-43 34 -57 -6 -4 -30 -5 -52 -3 -37 4 -40 3 -29 -11 16 -19 79 -21 104 -2 20
15 23 59 4 74 -6 6 -24 13 -39 17 -64 16 -59 57 7 57 23 0 35 4 32 12 -6 17
-69 19 -94 1z"/>
<path d="M8911 3591 c-12 -12 -21 -27 -21 -34 0 -19 29 -42 65 -54 43 -14 47
-49 6 -55 -16 -2 -37 -1 -45 4 -20 11 -29 -7 -11 -22 19 -16 94 -7 106 12 13
19 11 54 -4 66 -6 6 -24 13 -39 17 -64 16 -58 59 7 57 49 -2 41 22 -8 26 -26
2 -42 -3 -56 -17z"/>
<path d="M9100 3606 c0 -2 -15 -44 -34 -95 -30 -81 -32 -91 -16 -91 10 0 20
10 24 23 8 33 74 32 89 -1 10 -23 43 -32 35 -9 -3 6 -17 49 -33 95 -22 62 -33
82 -47 82 -10 0 -18 -2 -18 -4z m39 -84 c9 -31 8 -32 -20 -32 -33 0 -33 1 -17
47 13 37 24 32 37 -15z"/>
<path d="M9239 3585 c-5 -165 -5 -165 15 -165 14 0 17 6 14 25 -3 14 0 29 6
34 18 14 55 -6 62 -34 3 -14 12 -25 20 -25 18 0 18 20 -1 47 -13 18 -12 22 5
38 24 22 26 53 4 83 -12 18 -25 22 -70 22 -51 0 -54 -1 -55 -25z m105 -18 c8
-12 8 -22 0 -34 -13 -22 -73 -30 -75 -11 -2 26 3 53 12 59 18 10 53 3 63 -14z"/>
</g>
</svg>
